<svg width="162" height="152" xmlns="http://www.w3.org/2000/svg" xmlns:xlink="http://www.w3.org/1999/xlink" overflow="hidden"><defs><clipPath id="clip0"><path d="M-1-1 161-1 161 151-1 151Z" fill-rule="evenodd" clip-rule="evenodd"/></clipPath></defs><g clip-path="url(#clip0)" transform="translate(1 1)"><rect x="0" y="0" width="160" height="150" fill="#282C34"/><path d="M71.5906 77.598C59.1194 56.3139 55.8339 35.061 64.2522 30.1283 72.6706 25.1957 89.6049 38.4512 102.076 59.7353 114.547 81.0194 117.833 102.272 109.415 107.205 100.996 112.138 84.0618 98.8821 71.5906 77.598Z" stroke="#09D3AC" stroke-width="4" stroke-linejoin="round" stroke-miterlimit="10" fill="none" fill-rule="evenodd"/><path d="M71.9301 59.6136C84.8041 38.5706 101.988 25.6398 110.311 30.7318 118.634 35.8237 114.944 57.0103 102.07 78.0532 89.1961 99.0961 72.0126 112.027 63.6896 106.935 55.3667 101.843 59.056 80.6565 71.9301 59.6136Z" stroke="#09D3AC" stroke-width="4" stroke-linejoin="round" stroke-miterlimit="10" fill="none" fill-rule="evenodd"/><path d="M86.9999 86.0001C62.1471 86.0001 41.9999 78.165 41.9999 68.5001 41.9999 58.8351 62.1471 51.0001 86.9999 51.0001 111.853 51.0001 132 58.8351 132 68.5001 132 78.165 111.853 86.0001 86.9999 86.0001Z" stroke="#09D3AC" stroke-width="4" stroke-linejoin="round" stroke-miterlimit="10" fill="none" fill-rule="evenodd"/><path d="M79 68.5C79 63.8056 82.5817 60 87 60 91.4183 60 95 63.8056 95 68.5 95 73.1944 91.4183 77 87 77 82.5817 77 79 73.1944 79 68.5Z" fill="#09D3AC" fill-rule="evenodd"/><rect x="32" y="19" width="110" height="99" stroke="#09D3AC" stroke-width="4" stroke-miterlimit="8" fill="none"/><path d="M17 28.3333 17.3333 133 131.333 133 135 127.333 22 128 21 25" fill="#09D3AC" fill-rule="evenodd"/></g></svg>