<svg width="162" height="152" xmlns="http://www.w3.org/2000/svg" xmlns:xlink="http://www.w3.org/1999/xlink" overflow="hidden"><defs><clipPath id="clip0"><path d="M15 15 177 15 177 167 15 167Z" fill-rule="evenodd" clip-rule="evenodd"/></clipPath></defs><g clip-path="url(#clip0)" transform="translate(-15 -15)"><rect x="16" y="16" width="160" height="150" fill="#282C34"/><path d="M87.5906 93.598C75.1194 72.3139 71.8339 51.061 80.2522 46.1283 88.6706 41.1957 105.605 54.4512 118.076 75.7353 130.547 97.0194 133.833 118.272 125.415 123.205 116.996 128.138 100.062 114.882 87.5906 93.598Z" stroke="#EE8200" stroke-width="4" stroke-linejoin="round" stroke-miterlimit="10" fill="none" fill-rule="evenodd"/><path d="M87.9301 75.6136C100.804 54.5706 117.988 41.6398 126.311 46.7318 134.634 51.8237 130.944 73.0103 118.07 94.0532 105.196 115.096 88.0126 128.027 79.6896 122.935 71.3667 117.843 75.056 96.6565 87.9301 75.6136Z" stroke="#FF9617" stroke-width="4" stroke-linejoin="round" stroke-miterlimit="10" fill="none" fill-rule="evenodd"/><path d="M103 102C78.1471 102 57.9999 94.165 57.9999 84.5001 57.9999 74.8351 78.1471 67.0001 103 67.0001 127.853 67.0001 148 74.8351 148 84.5001 148 94.165 127.853 102 103 102Z" stroke="#FF9617" stroke-width="4" stroke-linejoin="round" stroke-miterlimit="10" fill="none" fill-rule="evenodd"/><path d="M95 84.5C95 79.8056 98.5817 76 103 76 107.418 76 111 79.8056 111 84.5 111 89.1944 107.418 93 103 93 98.5817 93 95 89.1944 95 84.5Z" fill="#EE8200" fill-rule="evenodd"/><rect x="48" y="35" width="110" height="99" stroke="#FF9617" stroke-width="4" stroke-miterlimit="8" fill="none"/><path d="M33 44.3333 33.3333 149 147.333 149 151 143.333 38 144 37 41" fill="#EE8200" fill-rule="evenodd"/></g></svg>