<svg width="161" height="151" xmlns="http://www.w3.org/2000/svg" xmlns:xlink="http://www.w3.org/1999/xlink" overflow="hidden"><defs><clipPath id="clip0"><path d="M342 218 503 218 503 369 342 369Z" fill-rule="evenodd" clip-rule="evenodd"/></clipPath></defs><g clip-path="url(#clip0)" transform="translate(-342 -218)"><rect x="343" y="219" width="160" height="150" fill="#282C34"/><path d="M414.239 296.228C401.768 274.943 398.482 253.691 406.9 248.758 415.319 243.825 432.253 257.081 444.724 278.365 457.196 299.649 460.481 320.902 452.063 325.835 443.644 330.767 426.71 317.512 414.239 296.228Z" stroke="#1D22EB" stroke-width="4" stroke-linejoin="round" stroke-miterlimit="10" fill="none" fill-rule="evenodd"/><path d="M414.578 278.243C427.452 257.2 444.636 244.269 452.959 249.361 461.282 254.453 457.592 275.64 444.718 296.683 431.844 317.726 414.661 330.657 406.338 325.565 398.015 320.473 401.704 299.286 414.578 278.243Z" stroke="#1116BC" stroke-width="4" stroke-linejoin="round" stroke-miterlimit="10" fill="none" fill-rule="evenodd"/><path d="M429.5 305C404.923 305 385 297.165 385 287.5 385 277.835 404.923 270 429.5 270 454.077 270 474 277.835 474 287.5 474 297.165 454.077 305 429.5 305Z" stroke="#1116BC" stroke-width="4" stroke-linejoin="round" stroke-miterlimit="10" fill="none" fill-rule="evenodd"/><path d="M421 287.5C421 282.806 424.806 279 429.5 279 434.194 279 438 282.806 438 287.5 438 292.194 434.194 296 429.5 296 424.806 296 421 292.194 421 287.5Z" fill="#1D22EB" fill-rule="evenodd"/><rect x="375" y="238" width="109" height="99" stroke="#1116BC" stroke-width="4" stroke-miterlimit="8" fill="none"/><path d="M359 247.333 359.333 352 473.333 352 477 346.333 364 347 363 244" fill="#1D22EB" fill-rule="evenodd"/></g></svg>